<svg xmlns="http://www.w3.org/2000/svg" width="105" height="32" viewBox="0 0 105 32"><g fill="none" fill-rule="evenodd"><path d="M0 0h105.2v32H0z"/><path d="M5.333 7.123h29.833V25.02H5.333z"/><path d="M35.036 20.177H32.54a.532.532 0 01-.4-.174c-.383-.379-.788-.75-1.158-1.134-.14-.143-.231-.135-.368 0-.366.372-.75.725-1.115 1.096a.652.652 0 01-.507.212H26.89c-.25 0-.341-.082-.336-.325v-2.075a.574.574 0 01.2-.443c.384-.366.757-.742 1.143-1.105.142-.133.153-.22 0-.358-.397-.369-.788-.755-1.167-1.126a.525.525 0 01-.179-.42v-2.103c0-.23.087-.315.321-.312h2.103a.559.559 0 01.426.19c.383.38.788.749 1.159 1.135.152.156.262.17.418 0 .375-.386.772-.755 1.159-1.133a.532.532 0 01.418-.182h2.494v2.684c-.457.44-.915.885-1.38 1.32-.145.136-.092.228.026.34.455.433.904.868 1.354 1.306l-.013 2.607zM5.482 16.065c-.003-2.752 1.7-5.234 4.313-6.286 2.613-1.051 5.62-.464 7.613 1.488 1.994 1.951 2.581 4.88 1.488 7.419-1.094 2.538-3.653 4.182-6.48 4.165a7.043 7.043 0 01-4.912-1.994 6.672 6.672 0 01-2.022-4.792zm4.892 0c-.006.541.21 1.062.601 1.447s.925.6 1.48.6c.8.083 1.58-.286 2.006-.95a2.001 2.001 0 000-2.17 2.122 2.122 0 00-2.005-.95c-1.146-.002-2.076.898-2.082 2.013v.01zm14.501.025v7.764c0 .425 0 .427-.44.427h-3.224c-.263 0-.376-.077-.376-.353V8.164c0-.256.092-.343.355-.34 1.114.002 2.207.015 3.314.002.302 0 .376.11.373.384-.008 2.628-.002 5.245-.002 7.88zm23.483-3.205c0 2.457-1.712 3.907-4.186 3.907h-1.67v6.242H40.48V9.1h3.692c2.66 0 4.186 1.289 4.186 3.786zm-3.935-1.968h-1.519v4.24h1.519c1.398 0 2.117-.847 2.117-2.16 0-1.293-.719-2.08-2.117-2.08zm12.419 12.117h-6.06V9.1h6v1.832h-4.046v4.028h3.946v1.812h-3.946v4.43h4.106v1.833zm1.818-7.26c0-4.207 3.056-7.281 7.24-7.281 4.309 0 7.303 3.094 7.303 7.26 0 4.147-2.994 7.281-7.282 7.281-4.287 0-7.261-3.033-7.261-7.26zm2.424 0c0 3.188 2.11 5.443 5.14 5.443 3.113 0 5.161-2.275 5.161-5.443 0-3.168-2.089-5.463-5.16-5.463-3.093 0-5.141 2.295-5.141 5.463zm22.421-2.89c0 2.458-1.712 3.908-4.186 3.908h-1.67v6.242h-2.022V9.1h3.692c2.66 0 4.186 1.289 4.186 3.786zm-4.541-1.967h-1.519v4.24h1.519c1.398 0 2.117-.847 2.117-2.16 0-1.293-.719-2.08-2.117-2.08zm12.419 12.117h-6.06V9.1h1.986v12.103h4.074v1.832zm8.484 0h-6.06V9.1h6v1.832H95.76v4.028h3.947v1.812H95.76v4.43h4.107v1.833z" fill="#FFF" fill-rule="nonzero"/></g></svg>